<svg width="18" height="18" viewBox="0 0 18 18" fill="none" xmlns="http://www.w3.org/2000/svg">
<path fill-rule="evenodd" clip-rule="evenodd" d="M10.1251 2.25H7.8751C7.72591 2.25 7.58284 2.30926 7.47735 2.41475C7.37186 2.52024 7.3126 2.66332 7.3126 2.8125V3.375H10.6876V2.8125C10.6876 2.66332 10.6283 2.52024 10.5228 2.41475C10.4174 2.30926 10.2743 2.25 10.1251 2.25ZM12.3751 3.375V2.8125C12.3751 2.21576 12.138 1.64347 11.7161 1.22151C11.2941 0.799553 10.7218 0.5625 10.1251 0.5625H7.8751C7.27836 0.5625 6.70606 0.799553 6.28411 1.22151C5.86215 1.64347 5.6251 2.21576 5.6251 2.8125V3.375H2.53247C2.30869 3.375 2.09408 3.46389 1.93585 3.62213C1.77762 3.78036 1.68872 3.99497 1.68872 4.21875C1.68872 4.44253 1.77762 4.65714 1.93585 4.81537C2.09408 4.97361 2.30869 5.0625 2.53247 5.0625H2.88347L3.2401 13.6406C3.27638 14.5107 3.64761 15.3332 4.27617 15.9359C4.90473 16.5387 5.74197 16.8752 6.61285 16.875H11.3885C12.2592 16.8749 13.0961 16.5383 13.7244 15.9355C14.3527 15.3328 14.7238 14.5106 14.7601 13.6406L15.1178 5.0625H15.4688C15.6926 5.0625 15.9072 4.97361 16.0655 4.81537C16.2237 4.65714 16.3126 4.44253 16.3126 4.21875C16.3126 3.99497 16.2237 3.78036 16.0655 3.62213C15.9072 3.46389 15.6926 3.375 15.4688 3.375H12.3751ZM13.4281 5.0625H4.5721L4.92647 13.5697C4.94447 14.0049 5.13002 14.4163 5.44432 14.7178C5.75862 15.0193 6.17731 15.1876 6.61285 15.1875H11.3885C11.8238 15.1873 12.2422 15.0189 12.5563 14.7174C12.8703 14.4159 13.0557 14.0047 13.0737 13.5697L13.4281 5.0625ZM6.46885 7.3125V12.9375C6.46885 13.1613 6.55774 13.3759 6.71597 13.5341C6.87421 13.6924 7.08882 13.7812 7.3126 13.7812C7.53637 13.7812 7.75098 13.6924 7.90922 13.5341C8.06745 13.3759 8.15635 13.1613 8.15635 12.9375V7.3125C8.15635 7.08872 8.06745 6.87411 7.90922 6.71588C7.75098 6.55764 7.53637 6.46875 7.3126 6.46875C7.08882 6.46875 6.87421 6.55764 6.71597 6.71588C6.55774 6.87411 6.46885 7.08872 6.46885 7.3125ZM10.6876 6.46875C10.9114 6.46875 11.126 6.55764 11.2842 6.71588C11.4424 6.87411 11.5313 7.08872 11.5313 7.3125V12.9375C11.5313 13.1613 11.4424 13.3759 11.2842 13.5341C11.126 13.6924 10.9114 13.7812 10.6876 13.7812C10.4638 13.7812 10.2492 13.6924 10.091 13.5341C9.93274 13.3759 9.84385 13.1613 9.84385 12.9375V7.3125C9.84385 7.08872 9.93274 6.87411 10.091 6.71588C10.2492 6.55764 10.4638 6.46875 10.6876 6.46875Z" fill="#FA5530"/>
</svg>
